<?xml version="1.0" standalone="no"?>
<!DOCTYPE svg PUBLIC "-//W3C//DTD SVG 20010904//EN"
  "http://www.w3.org/TR/2001/REC-SVG-20010904/DTD/svg10.dtd">
<svg width="26" height="26">
  <circle cx="0" cy="0" r="1" fill="none"/>
  <circle cx="1" cy="0" r="1" fill="none"/>
  <circle cx="2" cy="0" r="1" fill="none"/>
  <circle cx="3" cy="0" r="1" fill="none"/>
  <circle cx="4" cy="0" r="1" fill="none"/>
  <circle cx="5" cy="0" r="1" fill="none"/>
  <circle cx="6" cy="0" r="1" fill="none"/>
  <circle cx="7" cy="0" r="1" fill="none"/>
  <circle cx="8" cy="0" r="1" fill="none"/>
  <circle cx="9" cy="0" r="1" fill="none"/>
  <circle cx="10" cy="0" r="1" fill="none"/>
  <circle cx="11" cy="0" r="1" fill="none"/>
  <circle cx="12" cy="0" r="1" fill="none"/>
  <circle cx="13" cy="0" r="1" fill="none"/>
  <circle cx="14" cy="0" r="1" fill="none"/>
  <circle cx="15" cy="0" r="1" fill="none"/>
  <circle cx="16" cy="0" r="1" fill="none"/>
  <circle cx="17" cy="0" r="1" fill="none"/>
  <circle cx="18" cy="0" r="1" fill="none"/>
  <circle cx="19" cy="0" r="1" fill="none"/>
  <circle cx="20" cy="0" r="1" fill="none"/>
  <circle cx="21" cy="0" r="1" fill="none"/>
  <circle cx="22" cy="0" r="1" fill="rgba(51,51,51,0.686275)"/>
  <circle cx="23" cy="0" r="1" fill="grey20"/>
  <circle cx="24" cy="0" r="1" fill="rgba(51,51,51,0.686275)"/>
  <circle cx="25" cy="0" r="1" fill="none"/>
  <circle cx="0" cy="1" r="1" fill="none"/>
  <circle cx="1" cy="1" r="1" fill="none"/>
  <circle cx="2" cy="1" r="1" fill="none"/>
  <circle cx="3" cy="1" r="1" fill="none"/>
  <circle cx="4" cy="1" r="1" fill="none"/>
  <circle cx="5" cy="1" r="1" fill="none"/>
  <circle cx="6" cy="1" r="1" fill="none"/>
  <circle cx="7" cy="1" r="1" fill="none"/>
  <circle cx="8" cy="1" r="1" fill="none"/>
  <circle cx="9" cy="1" r="1" fill="none"/>
  <circle cx="10" cy="1" r="1" fill="none"/>
  <circle cx="11" cy="1" r="1" fill="none"/>
  <circle cx="12" cy="1" r="1" fill="none"/>
  <circle cx="13" cy="1" r="1" fill="none"/>
  <circle cx="14" cy="1" r="1" fill="none"/>
  <circle cx="15" cy="1" r="1" fill="none"/>
  <circle cx="16" cy="1" r="1" fill="none"/>
  <circle cx="17" cy="1" r="1" fill="none"/>
  <circle cx="18" cy="1" r="1" fill="none"/>
  <circle cx="19" cy="1" r="1" fill="none"/>
  <circle cx="20" cy="1" r="1" fill="rgba(51,51,51,0.188235)"/>
  <circle cx="21" cy="1" r="1" fill="rgba(51,51,51,0.501961)"/>
  <circle cx="22" cy="1" r="1" fill="grey20"/>
  <circle cx="23" cy="1" r="1" fill="grey20"/>
  <circle cx="24" cy="1" r="1" fill="grey20"/>
  <circle cx="25" cy="1" r="1" fill="none"/>
  <circle cx="0" cy="2" r="1" fill="none"/>
  <circle cx="1" cy="2" r="1" fill="none"/>
  <circle cx="2" cy="2" r="1" fill="none"/>
  <circle cx="3" cy="2" r="1" fill="none"/>
  <circle cx="4" cy="2" r="1" fill="none"/>
  <circle cx="5" cy="2" r="1" fill="none"/>
  <circle cx="6" cy="2" r="1" fill="none"/>
  <circle cx="7" cy="2" r="1" fill="none"/>
  <circle cx="8" cy="2" r="1" fill="none"/>
  <circle cx="9" cy="2" r="1" fill="none"/>
  <circle cx="10" cy="2" r="1" fill="none"/>
  <circle cx="11" cy="2" r="1" fill="none"/>
  <circle cx="12" cy="2" r="1" fill="none"/>
  <circle cx="13" cy="2" r="1" fill="none"/>
  <circle cx="14" cy="2" r="1" fill="none"/>
  <circle cx="15" cy="2" r="1" fill="none"/>
  <circle cx="16" cy="2" r="1" fill="rgba(51,51,51,0.12549)"/>
  <circle cx="17" cy="2" r="1" fill="rgba(51,51,51,0.376471)"/>
  <circle cx="18" cy="2" r="1" fill="rgba(51,51,51,0.686275)"/>
  <circle cx="19" cy="2" r="1" fill="rgba(51,51,51,0.937255)"/>
  <circle cx="20" cy="2" r="1" fill="rgba(51,51,51,0.937255)"/>
  <circle cx="21" cy="2" r="1" fill="rgba(51,51,51,0.623529)"/>
  <circle cx="22" cy="2" r="1" fill="rgba(51,51,51,0.74902)"/>
  <circle cx="23" cy="2" r="1" fill="grey20"/>
  <circle cx="24" cy="2" r="1" fill="rgba(51,51,51,0.686275)"/>
  <circle cx="25" cy="2" r="1" fill="none"/>
  <circle cx="0" cy="3" r="1" fill="none"/>
  <circle cx="1" cy="3" r="1" fill="none"/>
  <circle cx="2" cy="3" r="1" fill="none"/>
  <circle cx="3" cy="3" r="1" fill="none"/>
  <circle cx="4" cy="3" r="1" fill="none"/>
  <circle cx="5" cy="3" r="1" fill="none"/>
  <circle cx="6" cy="3" r="1" fill="none"/>
  <circle cx="7" cy="3" r="1" fill="none"/>
  <circle cx="8" cy="3" r="1" fill="none"/>
  <circle cx="9" cy="3" r="1" fill="none"/>
  <circle cx="10" cy="3" r="1" fill="none"/>
  <circle cx="11" cy="3" r="1" fill="none"/>
  <circle cx="12" cy="3" r="1" fill="none"/>
  <circle cx="13" cy="3" r="1" fill="rgba(51,51,51,0.313725)"/>
  <circle cx="14" cy="3" r="1" fill="rgba(51,51,51,0.560784)"/>
  <circle cx="15" cy="3" r="1" fill="rgba(51,51,51,0.87451)"/>
  <circle cx="16" cy="3" r="1" fill="grey20"/>
  <circle cx="17" cy="3" r="1" fill="rgba(51,51,51,0.811765)"/>
  <circle cx="18" cy="3" r="1" fill="rgba(51,51,51,0.560784)"/>
  <circle cx="19" cy="3" r="1" fill="rgba(51,51,51,0.188235)"/>
  <circle cx="20" cy="3" r="1" fill="none"/>
  <circle cx="21" cy="3" r="1" fill="none"/>
  <circle cx="22" cy="3" r="1" fill="none"/>
  <circle cx="23" cy="3" r="1" fill="none"/>
  <circle cx="24" cy="3" r="1" fill="none"/>
  <circle cx="25" cy="3" r="1" fill="none"/>
  <circle cx="0" cy="4" r="1" fill="none"/>
  <circle cx="1" cy="4" r="1" fill="none"/>
  <circle cx="2" cy="4" r="1" fill="none"/>
  <circle cx="3" cy="4" r="1" fill="none"/>
  <circle cx="4" cy="4" r="1" fill="none"/>
  <circle cx="5" cy="4" r="1" fill="none"/>
  <circle cx="6" cy="4" r="1" fill="none"/>
  <circle cx="7" cy="4" r="1" fill="none"/>
  <circle cx="8" cy="4" r="1" fill="none"/>
  <circle cx="9" cy="4" r="1" fill="rgba(51,51,51,0.188235)"/>
  <circle cx="10" cy="4" r="1" fill="rgba(51,51,51,0.439216)"/>
  <circle cx="11" cy="4" r="1" fill="rgba(51,51,51,0.74902)"/>
  <circle cx="12" cy="4" r="1" fill="grey20"/>
  <circle cx="13" cy="4" r="1" fill="grey20"/>
  <circle cx="14" cy="4" r="1" fill="rgba(51,51,51,0.686275)"/>
  <circle cx="15" cy="4" r="1" fill="rgba(51,51,51,0.439216)"/>
  <circle cx="16" cy="4" r="1" fill="rgba(51,51,51,0.12549)"/>
  <circle cx="17" cy="4" r="1" fill="none"/>
  <circle cx="18" cy="4" r="1" fill="none"/>
  <circle cx="19" cy="4" r="1" fill="none"/>
  <circle cx="20" cy="4" r="1" fill="none"/>
  <circle cx="21" cy="4" r="1" fill="none"/>
  <circle cx="22" cy="4" r="1" fill="none"/>
  <circle cx="23" cy="4" r="1" fill="none"/>
  <circle cx="24" cy="4" r="1" fill="none"/>
  <circle cx="25" cy="4" r="1" fill="none"/>
  <circle cx="0" cy="5" r="1" fill="none"/>
  <circle cx="1" cy="5" r="1" fill="none"/>
  <circle cx="2" cy="5" r="1" fill="none"/>
  <circle cx="3" cy="5" r="1" fill="none"/>
  <circle cx="4" cy="5" r="1" fill="none"/>
  <circle cx="5" cy="5" r="1" fill="rgba(51,51,51,0.0627451)"/>
  <circle cx="6" cy="5" r="1" fill="rgba(51,51,51,0.376471)"/>
  <circle cx="7" cy="5" r="1" fill="rgba(51,51,51,0.623529)"/>
  <circle cx="8" cy="5" r="1" fill="rgba(51,51,51,0.87451)"/>
  <circle cx="9" cy="5" r="1" fill="grey20"/>
  <circle cx="10" cy="5" r="1" fill="rgba(51,51,51,0.937255)"/>
  <circle cx="11" cy="5" r="1" fill="rgba(51,51,51,0.623529)"/>
  <circle cx="12" cy="5" r="1" fill="rgba(51,51,51,0.313725)"/>
  <circle cx="13" cy="5" r="1" fill="rgba(51,51,51,0.0627451)"/>
  <circle cx="14" cy="5" r="1" fill="none"/>
  <circle cx="15" cy="5" r="1" fill="none"/>
  <circle cx="16" cy="5" r="1" fill="none"/>
  <circle cx="17" cy="5" r="1" fill="none"/>
  <circle cx="18" cy="5" r="1" fill="none"/>
  <circle cx="19" cy="5" r="1" fill="none"/>
  <circle cx="20" cy="5" r="1" fill="none"/>
  <circle cx="21" cy="5" r="1" fill="none"/>
  <circle cx="22" cy="5" r="1" fill="none"/>
  <circle cx="23" cy="5" r="1" fill="none"/>
  <circle cx="24" cy="5" r="1" fill="none"/>
  <circle cx="25" cy="5" r="1" fill="none"/>
  <circle cx="0" cy="6" r="1" fill="none"/>
  <circle cx="1" cy="6" r="1" fill="none"/>
  <circle cx="2" cy="6" r="1" fill="rgba(51,51,51,0.376471)"/>
  <circle cx="3" cy="6" r="1" fill="rgba(51,51,51,0.87451)"/>
  <circle cx="4" cy="6" r="1" fill="rgba(51,51,51,0.937255)"/>
  <circle cx="5" cy="6" r="1" fill="grey20"/>
  <circle cx="6" cy="6" r="1" fill="grey20"/>
  <circle cx="7" cy="6" r="1" fill="rgba(51,51,51,0.87451)"/>
  <circle cx="8" cy="6" r="1" fill="rgba(51,51,51,0.560784)"/>
  <circle cx="9" cy="6" r="1" fill="rgba(51,51,51,0.25098)"/>
  <circle cx="10" cy="6" r="1" fill="none"/>
  <circle cx="11" cy="6" r="1" fill="none"/>
  <circle cx="12" cy="6" r="1" fill="none"/>
  <circle cx="13" cy="6" r="1" fill="none"/>
  <circle cx="14" cy="6" r="1" fill="none"/>
  <circle cx="15" cy="6" r="1" fill="none"/>
  <circle cx="16" cy="6" r="1" fill="none"/>
  <circle cx="17" cy="6" r="1" fill="none"/>
  <circle cx="18" cy="6" r="1" fill="none"/>
  <circle cx="19" cy="6" r="1" fill="none"/>
  <circle cx="20" cy="6" r="1" fill="none"/>
  <circle cx="21" cy="6" r="1" fill="none"/>
  <circle cx="22" cy="6" r="1" fill="none"/>
  <circle cx="23" cy="6" r="1" fill="none"/>
  <circle cx="24" cy="6" r="1" fill="none"/>
  <circle cx="25" cy="6" r="1" fill="none"/>
  <circle cx="0" cy="7" r="1" fill="none"/>
  <circle cx="1" cy="7" r="1" fill="none"/>
  <circle cx="2" cy="7" r="1" fill="rgba(51,51,51,0.87451)"/>
  <circle cx="3" cy="7" r="1" fill="grey20"/>
  <circle cx="4" cy="7" r="1" fill="grey20"/>
  <circle cx="5" cy="7" r="1" fill="rgba(51,51,51,0.937255)"/>
  <circle cx="6" cy="7" r="1" fill="rgba(51,51,51,0.12549)"/>
  <circle cx="7" cy="7" r="1" fill="none"/>
  <circle cx="8" cy="7" r="1" fill="none"/>
  <circle cx="9" cy="7" r="1" fill="none"/>
  <circle cx="10" cy="7" r="1" fill="none"/>
  <circle cx="11" cy="7" r="1" fill="none"/>
  <circle cx="12" cy="7" r="1" fill="none"/>
  <circle cx="13" cy="7" r="1" fill="none"/>
  <circle cx="14" cy="7" r="1" fill="none"/>
  <circle cx="15" cy="7" r="1" fill="none"/>
  <circle cx="16" cy="7" r="1" fill="none"/>
  <circle cx="17" cy="7" r="1" fill="none"/>
  <circle cx="18" cy="7" r="1" fill="none"/>
  <circle cx="19" cy="7" r="1" fill="none"/>
  <circle cx="20" cy="7" r="1" fill="none"/>
  <circle cx="21" cy="7" r="1" fill="none"/>
  <circle cx="22" cy="7" r="1" fill="none"/>
  <circle cx="23" cy="7" r="1" fill="none"/>
  <circle cx="24" cy="7" r="1" fill="none"/>
  <circle cx="25" cy="7" r="1" fill="none"/>
  <circle cx="0" cy="8" r="1" fill="rgba(51,51,51,0.0627451)"/>
  <circle cx="1" cy="8" r="1" fill="rgba(51,51,51,0.74902)"/>
  <circle cx="2" cy="8" r="1" fill="grey20"/>
  <circle cx="3" cy="8" r="1" fill="grey20"/>
  <circle cx="4" cy="8" r="1" fill="grey20"/>
  <circle cx="5" cy="8" r="1" fill="grey20"/>
  <circle cx="6" cy="8" r="1" fill="grey20"/>
  <circle cx="7" cy="8" r="1" fill="grey20"/>
  <circle cx="8" cy="8" r="1" fill="grey20"/>
  <circle cx="9" cy="8" r="1" fill="grey20"/>
  <circle cx="10" cy="8" r="1" fill="grey20"/>
  <circle cx="11" cy="8" r="1" fill="grey20"/>
  <circle cx="12" cy="8" r="1" fill="grey20"/>
  <circle cx="13" cy="8" r="1" fill="grey20"/>
  <circle cx="14" cy="8" r="1" fill="grey20"/>
  <circle cx="15" cy="8" r="1" fill="grey20"/>
  <circle cx="16" cy="8" r="1" fill="grey20"/>
  <circle cx="17" cy="8" r="1" fill="grey20"/>
  <circle cx="18" cy="8" r="1" fill="grey20"/>
  <circle cx="19" cy="8" r="1" fill="grey20"/>
  <circle cx="20" cy="8" r="1" fill="grey20"/>
  <circle cx="21" cy="8" r="1" fill="grey20"/>
  <circle cx="22" cy="8" r="1" fill="grey20"/>
  <circle cx="23" cy="8" r="1" fill="grey20"/>
  <circle cx="24" cy="8" r="1" fill="rgba(51,51,51,0.74902)"/>
  <circle cx="25" cy="8" r="1" fill="rgba(51,51,51,0.0627451)"/>
  <circle cx="0" cy="9" r="1" fill="rgba(51,51,51,0.74902)"/>
  <circle cx="1" cy="9" r="1" fill="grey20"/>
  <circle cx="2" cy="9" r="1" fill="grey20"/>
  <circle cx="3" cy="9" r="1" fill="grey20"/>
  <circle cx="4" cy="9" r="1" fill="grey20"/>
  <circle cx="5" cy="9" r="1" fill="grey20"/>
  <circle cx="6" cy="9" r="1" fill="grey20"/>
  <circle cx="7" cy="9" r="1" fill="grey20"/>
  <circle cx="8" cy="9" r="1" fill="grey20"/>
  <circle cx="9" cy="9" r="1" fill="grey20"/>
  <circle cx="10" cy="9" r="1" fill="grey20"/>
  <circle cx="11" cy="9" r="1" fill="grey20"/>
  <circle cx="12" cy="9" r="1" fill="grey20"/>
  <circle cx="13" cy="9" r="1" fill="grey20"/>
  <circle cx="14" cy="9" r="1" fill="grey20"/>
  <circle cx="15" cy="9" r="1" fill="grey20"/>
  <circle cx="16" cy="9" r="1" fill="grey20"/>
  <circle cx="17" cy="9" r="1" fill="grey20"/>
  <circle cx="18" cy="9" r="1" fill="grey20"/>
  <circle cx="19" cy="9" r="1" fill="grey20"/>
  <circle cx="20" cy="9" r="1" fill="grey20"/>
  <circle cx="21" cy="9" r="1" fill="grey20"/>
  <circle cx="22" cy="9" r="1" fill="grey20"/>
  <circle cx="23" cy="9" r="1" fill="grey20"/>
  <circle cx="24" cy="9" r="1" fill="grey20"/>
  <circle cx="25" cy="9" r="1" fill="rgba(51,51,51,0.74902)"/>
  <circle cx="0" cy="10" r="1" fill="grey20"/>
  <circle cx="1" cy="10" r="1" fill="grey20"/>
  <circle cx="2" cy="10" r="1" fill="grey20"/>
  <circle cx="3" cy="10" r="1" fill="grey20"/>
  <circle cx="4" cy="10" r="1" fill="grey20"/>
  <circle cx="5" cy="10" r="1" fill="grey20"/>
  <circle cx="6" cy="10" r="1" fill="grey20"/>
  <circle cx="7" cy="10" r="1" fill="grey20"/>
  <circle cx="8" cy="10" r="1" fill="grey20"/>
  <circle cx="9" cy="10" r="1" fill="grey20"/>
  <circle cx="10" cy="10" r="1" fill="grey20"/>
  <circle cx="11" cy="10" r="1" fill="grey20"/>
  <circle cx="12" cy="10" r="1" fill="grey20"/>
  <circle cx="13" cy="10" r="1" fill="grey20"/>
  <circle cx="14" cy="10" r="1" fill="grey20"/>
  <circle cx="15" cy="10" r="1" fill="grey20"/>
  <circle cx="16" cy="10" r="1" fill="grey20"/>
  <circle cx="17" cy="10" r="1" fill="grey20"/>
  <circle cx="18" cy="10" r="1" fill="grey20"/>
  <circle cx="19" cy="10" r="1" fill="grey20"/>
  <circle cx="20" cy="10" r="1" fill="grey20"/>
  <circle cx="21" cy="10" r="1" fill="grey20"/>
  <circle cx="22" cy="10" r="1" fill="grey20"/>
  <circle cx="23" cy="10" r="1" fill="grey20"/>
  <circle cx="24" cy="10" r="1" fill="grey20"/>
  <circle cx="25" cy="10" r="1" fill="grey20"/>
  <circle cx="0" cy="11" r="1" fill="grey20"/>
  <circle cx="1" cy="11" r="1" fill="grey20"/>
  <circle cx="2" cy="11" r="1" fill="grey20"/>
  <circle cx="3" cy="11" r="1" fill="rgba(51,51,51,0.623529)"/>
  <circle cx="4" cy="11" r="1" fill="none"/>
  <circle cx="5" cy="11" r="1" fill="rgba(51,51,51,0.623529)"/>
  <circle cx="6" cy="11" r="1" fill="grey20"/>
  <circle cx="7" cy="11" r="1" fill="grey20"/>
  <circle cx="8" cy="11" r="1" fill="grey20"/>
  <circle cx="9" cy="11" r="1" fill="grey20"/>
  <circle cx="10" cy="11" r="1" fill="grey20"/>
  <circle cx="11" cy="11" r="1" fill="grey20"/>
  <circle cx="12" cy="11" r="1" fill="grey20"/>
  <circle cx="13" cy="11" r="1" fill="grey20"/>
  <circle cx="14" cy="11" r="1" fill="rgba(51,51,51,0.87451)"/>
  <circle cx="15" cy="11" r="1" fill="rgba(51,51,51,0.376471)"/>
  <circle cx="16" cy="11" r="1" fill="rgba(51,51,51,0.0627451)"/>
  <circle cx="17" cy="11" r="1" fill="none"/>
  <circle cx="18" cy="11" r="1" fill="rgba(51,51,51,0.0627451)"/>
  <circle cx="19" cy="11" r="1" fill="rgba(51,51,51,0.376471)"/>
  <circle cx="20" cy="11" r="1" fill="rgba(51,51,51,0.87451)"/>
  <circle cx="21" cy="11" r="1" fill="grey20"/>
  <circle cx="22" cy="11" r="1" fill="grey20"/>
  <circle cx="23" cy="11" r="1" fill="grey20"/>
  <circle cx="24" cy="11" r="1" fill="grey20"/>
  <circle cx="25" cy="11" r="1" fill="grey20"/>
  <circle cx="0" cy="12" r="1" fill="grey20"/>
  <circle cx="1" cy="12" r="1" fill="grey20"/>
  <circle cx="2" cy="12" r="1" fill="grey20"/>
  <circle cx="3" cy="12" r="1" fill="none"/>
  <circle cx="4" cy="12" r="1" fill="none"/>
  <circle cx="5" cy="12" r="1" fill="none"/>
  <circle cx="6" cy="12" r="1" fill="grey20"/>
  <circle cx="7" cy="12" r="1" fill="grey20"/>
  <circle cx="8" cy="12" r="1" fill="grey20"/>
  <circle cx="9" cy="12" r="1" fill="grey20"/>
  <circle cx="10" cy="12" r="1" fill="grey20"/>
  <circle cx="11" cy="12" r="1" fill="grey20"/>
  <circle cx="12" cy="12" r="1" fill="grey20"/>
  <circle cx="13" cy="12" r="1" fill="rgba(51,51,51,0.623529)"/>
  <circle cx="14" cy="12" r="1" fill="rgba(51,51,51,0.12549)"/>
  <circle cx="15" cy="12" r="1" fill="rgba(51,51,51,0.501961)"/>
  <circle cx="16" cy="12" r="1" fill="rgba(51,51,51,0.811765)"/>
  <circle cx="17" cy="12" r="1" fill="grey20"/>
  <circle cx="18" cy="12" r="1" fill="rgba(51,51,51,0.811765)"/>
  <circle cx="19" cy="12" r="1" fill="rgba(51,51,51,0.501961)"/>
  <circle cx="20" cy="12" r="1" fill="rgba(51,51,51,0.12549)"/>
  <circle cx="21" cy="12" r="1" fill="rgba(51,51,51,0.623529)"/>
  <circle cx="22" cy="12" r="1" fill="grey20"/>
  <circle cx="23" cy="12" r="1" fill="grey20"/>
  <circle cx="24" cy="12" r="1" fill="grey20"/>
  <circle cx="25" cy="12" r="1" fill="grey20"/>
  <circle cx="0" cy="13" r="1" fill="grey20"/>
  <circle cx="1" cy="13" r="1" fill="grey20"/>
  <circle cx="2" cy="13" r="1" fill="grey20"/>
  <circle cx="3" cy="13" r="1" fill="rgba(51,51,51,0.623529)"/>
  <circle cx="4" cy="13" r="1" fill="none"/>
  <circle cx="5" cy="13" r="1" fill="rgba(51,51,51,0.623529)"/>
  <circle cx="6" cy="13" r="1" fill="grey20"/>
  <circle cx="7" cy="13" r="1" fill="grey20"/>
  <circle cx="8" cy="13" r="1" fill="grey20"/>
  <circle cx="9" cy="13" r="1" fill="grey20"/>
  <circle cx="10" cy="13" r="1" fill="grey20"/>
  <circle cx="11" cy="13" r="1" fill="grey20"/>
  <circle cx="12" cy="13" r="1" fill="rgba(51,51,51,0.87451)"/>
  <circle cx="13" cy="13" r="1" fill="rgba(51,51,51,0.0627451)"/>
  <circle cx="14" cy="13" r="1" fill="none"/>
  <circle cx="15" cy="13" r="1" fill="none"/>
  <circle cx="16" cy="13" r="1" fill="none"/>
  <circle cx="17" cy="13" r="1" fill="none"/>
  <circle cx="18" cy="13" r="1" fill="none"/>
  <circle cx="19" cy="13" r="1" fill="none"/>
  <circle cx="20" cy="13" r="1" fill="none"/>
  <circle cx="21" cy="13" r="1" fill="rgba(51,51,51,0.0627451)"/>
  <circle cx="22" cy="13" r="1" fill="rgba(51,51,51,0.87451)"/>
  <circle cx="23" cy="13" r="1" fill="grey20"/>
  <circle cx="24" cy="13" r="1" fill="grey20"/>
  <circle cx="25" cy="13" r="1" fill="grey20"/>
  <circle cx="0" cy="14" r="1" fill="grey20"/>
  <circle cx="1" cy="14" r="1" fill="grey20"/>
  <circle cx="2" cy="14" r="1" fill="grey20"/>
  <circle cx="3" cy="14" r="1" fill="grey20"/>
  <circle cx="4" cy="14" r="1" fill="grey20"/>
  <circle cx="5" cy="14" r="1" fill="grey20"/>
  <circle cx="6" cy="14" r="1" fill="grey20"/>
  <circle cx="7" cy="14" r="1" fill="grey20"/>
  <circle cx="8" cy="14" r="1" fill="grey20"/>
  <circle cx="9" cy="14" r="1" fill="grey20"/>
  <circle cx="10" cy="14" r="1" fill="grey20"/>
  <circle cx="11" cy="14" r="1" fill="grey20"/>
  <circle cx="12" cy="14" r="1" fill="rgba(51,51,51,0.376471)"/>
  <circle cx="13" cy="14" r="1" fill="rgba(51,51,51,0.501961)"/>
  <circle cx="14" cy="14" r="1" fill="grey20"/>
  <circle cx="15" cy="14" r="1" fill="grey20"/>
  <circle cx="16" cy="14" r="1" fill="grey20"/>
  <circle cx="17" cy="14" r="1" fill="grey20"/>
  <circle cx="18" cy="14" r="1" fill="grey20"/>
  <circle cx="19" cy="14" r="1" fill="grey20"/>
  <circle cx="20" cy="14" r="1" fill="grey20"/>
  <circle cx="21" cy="14" r="1" fill="rgba(51,51,51,0.501961)"/>
  <circle cx="22" cy="14" r="1" fill="rgba(51,51,51,0.376471)"/>
  <circle cx="23" cy="14" r="1" fill="grey20"/>
  <circle cx="24" cy="14" r="1" fill="grey20"/>
  <circle cx="25" cy="14" r="1" fill="grey20"/>
  <circle cx="0" cy="15" r="1" fill="grey20"/>
  <circle cx="1" cy="15" r="1" fill="grey20"/>
  <circle cx="2" cy="15" r="1" fill="grey20"/>
  <circle cx="3" cy="15" r="1" fill="grey20"/>
  <circle cx="4" cy="15" r="1" fill="grey20"/>
  <circle cx="5" cy="15" r="1" fill="grey20"/>
  <circle cx="6" cy="15" r="1" fill="grey20"/>
  <circle cx="7" cy="15" r="1" fill="grey20"/>
  <circle cx="8" cy="15" r="1" fill="grey20"/>
  <circle cx="9" cy="15" r="1" fill="grey20"/>
  <circle cx="10" cy="15" r="1" fill="grey20"/>
  <circle cx="11" cy="15" r="1" fill="grey20"/>
  <circle cx="12" cy="15" r="1" fill="rgba(51,51,51,0.0627451)"/>
  <circle cx="13" cy="15" r="1" fill="none"/>
  <circle cx="14" cy="15" r="1" fill="none"/>
  <circle cx="15" cy="15" r="1" fill="none"/>
  <circle cx="16" cy="15" r="1" fill="none"/>
  <circle cx="17" cy="15" r="1" fill="none"/>
  <circle cx="18" cy="15" r="1" fill="none"/>
  <circle cx="19" cy="15" r="1" fill="none"/>
  <circle cx="20" cy="15" r="1" fill="none"/>
  <circle cx="21" cy="15" r="1" fill="none"/>
  <circle cx="22" cy="15" r="1" fill="rgba(51,51,51,0.0627451)"/>
  <circle cx="23" cy="15" r="1" fill="grey20"/>
  <circle cx="24" cy="15" r="1" fill="grey20"/>
  <circle cx="25" cy="15" r="1" fill="grey20"/>
  <circle cx="0" cy="16" r="1" fill="grey20"/>
  <circle cx="1" cy="16" r="1" fill="grey20"/>
  <circle cx="2" cy="16" r="1" fill="grey20"/>
  <circle cx="3" cy="16" r="1" fill="rgba(51,51,51,0.623529)"/>
  <circle cx="4" cy="16" r="1" fill="none"/>
  <circle cx="5" cy="16" r="1" fill="rgba(51,51,51,0.623529)"/>
  <circle cx="6" cy="16" r="1" fill="grey20"/>
  <circle cx="7" cy="16" r="1" fill="grey20"/>
  <circle cx="8" cy="16" r="1" fill="grey20"/>
  <circle cx="9" cy="16" r="1" fill="grey20"/>
  <circle cx="10" cy="16" r="1" fill="grey20"/>
  <circle cx="11" cy="16" r="1" fill="grey20"/>
  <circle cx="12" cy="16" r="1" fill="none"/>
  <circle cx="13" cy="16" r="1" fill="grey20"/>
  <circle cx="14" cy="16" r="1" fill="grey20"/>
  <circle cx="15" cy="16" r="1" fill="grey20"/>
  <circle cx="16" cy="16" r="1" fill="grey20"/>
  <circle cx="17" cy="16" r="1" fill="grey20"/>
  <circle cx="18" cy="16" r="1" fill="grey20"/>
  <circle cx="19" cy="16" r="1" fill="grey20"/>
  <circle cx="20" cy="16" r="1" fill="grey20"/>
  <circle cx="21" cy="16" r="1" fill="grey20"/>
  <circle cx="22" cy="16" r="1" fill="none"/>
  <circle cx="23" cy="16" r="1" fill="grey20"/>
  <circle cx="24" cy="16" r="1" fill="grey20"/>
  <circle cx="25" cy="16" r="1" fill="grey20"/>
  <circle cx="0" cy="17" r="1" fill="grey20"/>
  <circle cx="1" cy="17" r="1" fill="grey20"/>
  <circle cx="2" cy="17" r="1" fill="grey20"/>
  <circle cx="3" cy="17" r="1" fill="none"/>
  <circle cx="4" cy="17" r="1" fill="none"/>
  <circle cx="5" cy="17" r="1" fill="none"/>
  <circle cx="6" cy="17" r="1" fill="grey20"/>
  <circle cx="7" cy="17" r="1" fill="grey20"/>
  <circle cx="8" cy="17" r="1" fill="grey20"/>
  <circle cx="9" cy="17" r="1" fill="grey20"/>
  <circle cx="10" cy="17" r="1" fill="grey20"/>
  <circle cx="11" cy="17" r="1" fill="grey20"/>
  <circle cx="12" cy="17" r="1" fill="rgba(51,51,51,0.0627451)"/>
  <circle cx="13" cy="17" r="1" fill="none"/>
  <circle cx="14" cy="17" r="1" fill="none"/>
  <circle cx="15" cy="17" r="1" fill="none"/>
  <circle cx="16" cy="17" r="1" fill="none"/>
  <circle cx="17" cy="17" r="1" fill="none"/>
  <circle cx="18" cy="17" r="1" fill="none"/>
  <circle cx="19" cy="17" r="1" fill="none"/>
  <circle cx="20" cy="17" r="1" fill="none"/>
  <circle cx="21" cy="17" r="1" fill="none"/>
  <circle cx="22" cy="17" r="1" fill="rgba(51,51,51,0.0627451)"/>
  <circle cx="23" cy="17" r="1" fill="grey20"/>
  <circle cx="24" cy="17" r="1" fill="grey20"/>
  <circle cx="25" cy="17" r="1" fill="grey20"/>
  <circle cx="0" cy="18" r="1" fill="grey20"/>
  <circle cx="1" cy="18" r="1" fill="grey20"/>
  <circle cx="2" cy="18" r="1" fill="grey20"/>
  <circle cx="3" cy="18" r="1" fill="rgba(51,51,51,0.623529)"/>
  <circle cx="4" cy="18" r="1" fill="none"/>
  <circle cx="5" cy="18" r="1" fill="rgba(51,51,51,0.623529)"/>
  <circle cx="6" cy="18" r="1" fill="grey20"/>
  <circle cx="7" cy="18" r="1" fill="grey20"/>
  <circle cx="8" cy="18" r="1" fill="grey20"/>
  <circle cx="9" cy="18" r="1" fill="grey20"/>
  <circle cx="10" cy="18" r="1" fill="grey20"/>
  <circle cx="11" cy="18" r="1" fill="grey20"/>
  <circle cx="12" cy="18" r="1" fill="rgba(51,51,51,0.376471)"/>
  <circle cx="13" cy="18" r="1" fill="rgba(51,51,51,0.501961)"/>
  <circle cx="14" cy="18" r="1" fill="grey20"/>
  <circle cx="15" cy="18" r="1" fill="grey20"/>
  <circle cx="16" cy="18" r="1" fill="grey20"/>
  <circle cx="17" cy="18" r="1" fill="grey20"/>
  <circle cx="18" cy="18" r="1" fill="grey20"/>
  <circle cx="19" cy="18" r="1" fill="grey20"/>
  <circle cx="20" cy="18" r="1" fill="grey20"/>
  <circle cx="21" cy="18" r="1" fill="rgba(51,51,51,0.501961)"/>
  <circle cx="22" cy="18" r="1" fill="rgba(51,51,51,0.376471)"/>
  <circle cx="23" cy="18" r="1" fill="grey20"/>
  <circle cx="24" cy="18" r="1" fill="grey20"/>
  <circle cx="25" cy="18" r="1" fill="grey20"/>
  <circle cx="0" cy="19" r="1" fill="grey20"/>
  <circle cx="1" cy="19" r="1" fill="grey20"/>
  <circle cx="2" cy="19" r="1" fill="grey20"/>
  <circle cx="3" cy="19" r="1" fill="grey20"/>
  <circle cx="4" cy="19" r="1" fill="grey20"/>
  <circle cx="5" cy="19" r="1" fill="grey20"/>
  <circle cx="6" cy="19" r="1" fill="grey20"/>
  <circle cx="7" cy="19" r="1" fill="grey20"/>
  <circle cx="8" cy="19" r="1" fill="grey20"/>
  <circle cx="9" cy="19" r="1" fill="grey20"/>
  <circle cx="10" cy="19" r="1" fill="grey20"/>
  <circle cx="11" cy="19" r="1" fill="grey20"/>
  <circle cx="12" cy="19" r="1" fill="rgba(51,51,51,0.87451)"/>
  <circle cx="13" cy="19" r="1" fill="rgba(51,51,51,0.0627451)"/>
  <circle cx="14" cy="19" r="1" fill="none"/>
  <circle cx="15" cy="19" r="1" fill="none"/>
  <circle cx="16" cy="19" r="1" fill="none"/>
  <circle cx="17" cy="19" r="1" fill="none"/>
  <circle cx="18" cy="19" r="1" fill="none"/>
  <circle cx="19" cy="19" r="1" fill="none"/>
  <circle cx="20" cy="19" r="1" fill="none"/>
  <circle cx="21" cy="19" r="1" fill="rgba(51,51,51,0.0627451)"/>
  <circle cx="22" cy="19" r="1" fill="rgba(51,51,51,0.87451)"/>
  <circle cx="23" cy="19" r="1" fill="grey20"/>
  <circle cx="24" cy="19" r="1" fill="grey20"/>
  <circle cx="25" cy="19" r="1" fill="grey20"/>
  <circle cx="0" cy="20" r="1" fill="grey20"/>
  <circle cx="1" cy="20" r="1" fill="grey20"/>
  <circle cx="2" cy="20" r="1" fill="grey20"/>
  <circle cx="3" cy="20" r="1" fill="grey20"/>
  <circle cx="4" cy="20" r="1" fill="grey20"/>
  <circle cx="5" cy="20" r="1" fill="grey20"/>
  <circle cx="6" cy="20" r="1" fill="grey20"/>
  <circle cx="7" cy="20" r="1" fill="grey20"/>
  <circle cx="8" cy="20" r="1" fill="grey20"/>
  <circle cx="9" cy="20" r="1" fill="grey20"/>
  <circle cx="10" cy="20" r="1" fill="grey20"/>
  <circle cx="11" cy="20" r="1" fill="grey20"/>
  <circle cx="12" cy="20" r="1" fill="grey20"/>
  <circle cx="13" cy="20" r="1" fill="rgba(51,51,51,0.623529)"/>
  <circle cx="14" cy="20" r="1" fill="rgba(51,51,51,0.12549)"/>
  <circle cx="15" cy="20" r="1" fill="rgba(51,51,51,0.501961)"/>
  <circle cx="16" cy="20" r="1" fill="rgba(51,51,51,0.811765)"/>
  <circle cx="17" cy="20" r="1" fill="grey20"/>
  <circle cx="18" cy="20" r="1" fill="rgba(51,51,51,0.811765)"/>
  <circle cx="19" cy="20" r="1" fill="rgba(51,51,51,0.501961)"/>
  <circle cx="20" cy="20" r="1" fill="rgba(51,51,51,0.12549)"/>
  <circle cx="21" cy="20" r="1" fill="rgba(51,51,51,0.623529)"/>
  <circle cx="22" cy="20" r="1" fill="grey20"/>
  <circle cx="23" cy="20" r="1" fill="grey20"/>
  <circle cx="24" cy="20" r="1" fill="grey20"/>
  <circle cx="25" cy="20" r="1" fill="grey20"/>
  <circle cx="0" cy="21" r="1" fill="grey20"/>
  <circle cx="1" cy="21" r="1" fill="grey20"/>
  <circle cx="2" cy="21" r="1" fill="grey20"/>
  <circle cx="3" cy="21" r="1" fill="grey20"/>
  <circle cx="4" cy="21" r="1" fill="grey20"/>
  <circle cx="5" cy="21" r="1" fill="grey20"/>
  <circle cx="6" cy="21" r="1" fill="grey20"/>
  <circle cx="7" cy="21" r="1" fill="grey20"/>
  <circle cx="8" cy="21" r="1" fill="grey20"/>
  <circle cx="9" cy="21" r="1" fill="grey20"/>
  <circle cx="10" cy="21" r="1" fill="grey20"/>
  <circle cx="11" cy="21" r="1" fill="grey20"/>
  <circle cx="12" cy="21" r="1" fill="grey20"/>
  <circle cx="13" cy="21" r="1" fill="grey20"/>
  <circle cx="14" cy="21" r="1" fill="rgba(51,51,51,0.87451)"/>
  <circle cx="15" cy="21" r="1" fill="rgba(51,51,51,0.376471)"/>
  <circle cx="16" cy="21" r="1" fill="rgba(51,51,51,0.0627451)"/>
  <circle cx="17" cy="21" r="1" fill="none"/>
  <circle cx="18" cy="21" r="1" fill="rgba(51,51,51,0.0627451)"/>
  <circle cx="19" cy="21" r="1" fill="rgba(51,51,51,0.376471)"/>
  <circle cx="20" cy="21" r="1" fill="rgba(51,51,51,0.87451)"/>
  <circle cx="21" cy="21" r="1" fill="grey20"/>
  <circle cx="22" cy="21" r="1" fill="grey20"/>
  <circle cx="23" cy="21" r="1" fill="grey20"/>
  <circle cx="24" cy="21" r="1" fill="grey20"/>
  <circle cx="25" cy="21" r="1" fill="grey20"/>
  <circle cx="0" cy="22" r="1" fill="grey20"/>
  <circle cx="1" cy="22" r="1" fill="grey20"/>
  <circle cx="2" cy="22" r="1" fill="grey20"/>
  <circle cx="3" cy="22" r="1" fill="grey20"/>
  <circle cx="4" cy="22" r="1" fill="grey20"/>
  <circle cx="5" cy="22" r="1" fill="grey20"/>
  <circle cx="6" cy="22" r="1" fill="grey20"/>
  <circle cx="7" cy="22" r="1" fill="grey20"/>
  <circle cx="8" cy="22" r="1" fill="grey20"/>
  <circle cx="9" cy="22" r="1" fill="grey20"/>
  <circle cx="10" cy="22" r="1" fill="grey20"/>
  <circle cx="11" cy="22" r="1" fill="grey20"/>
  <circle cx="12" cy="22" r="1" fill="grey20"/>
  <circle cx="13" cy="22" r="1" fill="grey20"/>
  <circle cx="14" cy="22" r="1" fill="grey20"/>
  <circle cx="15" cy="22" r="1" fill="grey20"/>
  <circle cx="16" cy="22" r="1" fill="grey20"/>
  <circle cx="17" cy="22" r="1" fill="grey20"/>
  <circle cx="18" cy="22" r="1" fill="grey20"/>
  <circle cx="19" cy="22" r="1" fill="grey20"/>
  <circle cx="20" cy="22" r="1" fill="grey20"/>
  <circle cx="21" cy="22" r="1" fill="grey20"/>
  <circle cx="22" cy="22" r="1" fill="grey20"/>
  <circle cx="23" cy="22" r="1" fill="grey20"/>
  <circle cx="24" cy="22" r="1" fill="grey20"/>
  <circle cx="25" cy="22" r="1" fill="grey20"/>
  <circle cx="0" cy="23" r="1" fill="rgba(51,51,51,0.74902)"/>
  <circle cx="1" cy="23" r="1" fill="grey20"/>
  <circle cx="2" cy="23" r="1" fill="grey20"/>
  <circle cx="3" cy="23" r="1" fill="grey20"/>
  <circle cx="4" cy="23" r="1" fill="grey20"/>
  <circle cx="5" cy="23" r="1" fill="grey20"/>
  <circle cx="6" cy="23" r="1" fill="grey20"/>
  <circle cx="7" cy="23" r="1" fill="grey20"/>
  <circle cx="8" cy="23" r="1" fill="grey20"/>
  <circle cx="9" cy="23" r="1" fill="grey20"/>
  <circle cx="10" cy="23" r="1" fill="grey20"/>
  <circle cx="11" cy="23" r="1" fill="grey20"/>
  <circle cx="12" cy="23" r="1" fill="grey20"/>
  <circle cx="13" cy="23" r="1" fill="grey20"/>
  <circle cx="14" cy="23" r="1" fill="grey20"/>
  <circle cx="15" cy="23" r="1" fill="grey20"/>
  <circle cx="16" cy="23" r="1" fill="grey20"/>
  <circle cx="17" cy="23" r="1" fill="grey20"/>
  <circle cx="18" cy="23" r="1" fill="grey20"/>
  <circle cx="19" cy="23" r="1" fill="grey20"/>
  <circle cx="20" cy="23" r="1" fill="grey20"/>
  <circle cx="21" cy="23" r="1" fill="grey20"/>
  <circle cx="22" cy="23" r="1" fill="grey20"/>
  <circle cx="23" cy="23" r="1" fill="grey20"/>
  <circle cx="24" cy="23" r="1" fill="grey20"/>
  <circle cx="25" cy="23" r="1" fill="rgba(51,51,51,0.74902)"/>
  <circle cx="0" cy="24" r="1" fill="rgba(51,51,51,0.0627451)"/>
  <circle cx="1" cy="24" r="1" fill="rgba(51,51,51,0.74902)"/>
  <circle cx="2" cy="24" r="1" fill="grey20"/>
  <circle cx="3" cy="24" r="1" fill="grey20"/>
  <circle cx="4" cy="24" r="1" fill="grey20"/>
  <circle cx="5" cy="24" r="1" fill="grey20"/>
  <circle cx="6" cy="24" r="1" fill="grey20"/>
  <circle cx="7" cy="24" r="1" fill="grey20"/>
  <circle cx="8" cy="24" r="1" fill="grey20"/>
  <circle cx="9" cy="24" r="1" fill="grey20"/>
  <circle cx="10" cy="24" r="1" fill="grey20"/>
  <circle cx="11" cy="24" r="1" fill="grey20"/>
  <circle cx="12" cy="24" r="1" fill="grey20"/>
  <circle cx="13" cy="24" r="1" fill="grey20"/>
  <circle cx="14" cy="24" r="1" fill="grey20"/>
  <circle cx="15" cy="24" r="1" fill="grey20"/>
  <circle cx="16" cy="24" r="1" fill="grey20"/>
  <circle cx="17" cy="24" r="1" fill="grey20"/>
  <circle cx="18" cy="24" r="1" fill="grey20"/>
  <circle cx="19" cy="24" r="1" fill="grey20"/>
  <circle cx="20" cy="24" r="1" fill="grey20"/>
  <circle cx="21" cy="24" r="1" fill="grey20"/>
  <circle cx="22" cy="24" r="1" fill="grey20"/>
  <circle cx="23" cy="24" r="1" fill="grey20"/>
  <circle cx="24" cy="24" r="1" fill="rgba(51,51,51,0.74902)"/>
  <circle cx="25" cy="24" r="1" fill="rgba(51,51,51,0.0627451)"/>
  <circle cx="0" cy="25" r="1" fill="none"/>
  <circle cx="1" cy="25" r="1" fill="none"/>
  <circle cx="2" cy="25" r="1" fill="rgba(51,51,51,0.12549)"/>
  <circle cx="3" cy="25" r="1" fill="rgba(51,51,51,0.25098)"/>
  <circle cx="4" cy="25" r="1" fill="rgba(51,51,51,0.25098)"/>
  <circle cx="5" cy="25" r="1" fill="rgba(51,51,51,0.25098)"/>
  <circle cx="6" cy="25" r="1" fill="rgba(51,51,51,0.25098)"/>
  <circle cx="7" cy="25" r="1" fill="rgba(51,51,51,0.25098)"/>
  <circle cx="8" cy="25" r="1" fill="rgba(51,51,51,0.25098)"/>
  <circle cx="9" cy="25" r="1" fill="rgba(51,51,51,0.25098)"/>
  <circle cx="10" cy="25" r="1" fill="rgba(51,51,51,0.25098)"/>
  <circle cx="11" cy="25" r="1" fill="rgba(51,51,51,0.25098)"/>
  <circle cx="12" cy="25" r="1" fill="rgba(51,51,51,0.25098)"/>
  <circle cx="13" cy="25" r="1" fill="rgba(51,51,51,0.25098)"/>
  <circle cx="14" cy="25" r="1" fill="rgba(51,51,51,0.25098)"/>
  <circle cx="15" cy="25" r="1" fill="rgba(51,51,51,0.25098)"/>
  <circle cx="16" cy="25" r="1" fill="rgba(51,51,51,0.25098)"/>
  <circle cx="17" cy="25" r="1" fill="rgba(51,51,51,0.25098)"/>
  <circle cx="18" cy="25" r="1" fill="rgba(51,51,51,0.25098)"/>
  <circle cx="19" cy="25" r="1" fill="rgba(51,51,51,0.25098)"/>
  <circle cx="20" cy="25" r="1" fill="rgba(51,51,51,0.25098)"/>
  <circle cx="21" cy="25" r="1" fill="rgba(51,51,51,0.25098)"/>
  <circle cx="22" cy="25" r="1" fill="rgba(51,51,51,0.25098)"/>
  <circle cx="23" cy="25" r="1" fill="rgba(51,51,51,0.0627451)"/>
  <circle cx="24" cy="25" r="1" fill="none"/>
  <circle cx="25" cy="25" r="1" fill="none"/>
</svg>
